<svg width="103" height="22" xmlns="http://www.w3.org/2000/svg" xmlns:xlink="http://www.w3.org/1999/xlink" xml:space="preserve" overflow="hidden"><defs><clipPath id="clip0"><rect x="428" y="434" width="103" height="22"/></clipPath></defs><g clip-path="url(#clip0)" transform="translate(-428 -434)"><g><path d="M12.3166 21.3383C16.4745 21.3383 18.5142 18.6711 18.5142 15.6115 18.5926 13.1796 16.9452 10.983 14.5132 10.5123 16.7098 9.96313 18.2004 7.92343 18.1219 5.72684 18.1219 3.05954 16.1607 0.392249 12.0028 0.392249L0 0.392249 0 21.4168 12.3166 21.4168ZM5.41304 4.86389 10.6692 4.86389C11.6106 4.78544 12.4735 5.49149 12.552 6.51133 12.552 6.58978 12.552 6.58978 12.552 6.66823 12.552 7.68808 11.7675 8.47258 10.8261 8.47258 10.7476 8.47258 10.7476 8.47258 10.6692 8.47258L5.41304 8.47258 5.41304 4.86389ZM5.41304 12.9442 10.8261 12.9442C11.9244 12.8658 12.7873 13.6503 12.8658 14.7486 12.8658 14.827 12.8658 14.9055 12.8658 14.9055 12.8658 15.9253 12.0813 16.7883 11.0614 16.8667 10.983 16.8667 10.9045 16.8667 10.8261 16.8667L5.41304 16.8667 5.41304 12.9442ZM26.516 21.3383 26.516 14.1994 31.6153 14.1994C36.3223 14.1994 38.9111 11.0614 38.9111 7.29583 38.9111 3.45179 36.3223 0.313799 31.6153 0.313799L21.103 0.313799 21.103 21.3383 26.516 21.3383ZM33.4196 7.29583C33.4196 8.55103 32.3998 9.64933 31.1446 9.64933 31.0661 9.64933 30.9877 9.64933 30.9092 9.64933L26.516 9.64933 26.516 4.94234 30.9092 4.94234C32.1644 4.78544 33.3412 5.80529 33.4196 7.06048 33.4196 7.13893 33.4196 7.21738 33.4196 7.29583M51.8553 21.7306C55.7778 21.8875 59.465 19.6909 61.1908 16.0822L56.4839 13.8856C55.6994 15.7684 53.8166 16.9452 51.8553 16.9452 48.5604 16.9452 46.1285 14.2779 46.1285 10.8261 46.1285 7.37428 48.5604 4.70699 51.8553 4.70699 53.895 4.70699 55.6994 5.88374 56.4839 7.76653L61.1124 5.56994C59.7787 2.90264 57.033 0 51.8553 0 45.5793 0 40.637 4.39319 40.637 10.9045 40.637 17.3374 45.5009 21.7306 51.8553 21.7306" fill="#501851" transform="matrix(1.01621 0 0 1 468.857 434.135)"/><path d="M5.96218 10.4338 0 20.7107C0 20.7892 0 20.8676 0.0784498 20.8676 0.0784498 20.8676 0.1569 20.8676 0.1569 20.8676 1.0983 20.8676 3.45179 20.7892 6.27598 20.7892 8.23723 20.7892 9.96313 19.534 10.6692 17.7297L10.6692 17.7297 15.1408 10.3554 10.6692 2.98109 10.6692 2.98109C9.96313 1.2552 8.15878 0.0784498 6.27598 0.0784498 3.45179 0.0784498 1.0983 0 0.1569 0 0.0784498 0 0 0.0784498 0 0.1569 0 0.1569 0 0.235349 0 0.235349L5.96218 10.4338Z" stroke="#FFFFFF" stroke-width="0.392249" fill="#501851" transform="matrix(1.01621 0 0 1 443.376 434.59)"/></g></g></svg>